<svg xmlns="http://www.w3.org/2000/svg" xmlns:xlink="http://www.w3.org/1999/xlink" width="19" height="19" viewBox="0 0 19 19"><defs><path id="uhdfa" d="M470 2699a2 2 0 0 1 2-2h15a2 2 0 0 1 2 2v10a2 2 0 0 1-2 2h-5v-1h4a2 2 0 0 0 2-2v-8a2 2 0 0 0-2-2h-13a2 2 0 0 0-2 2v8a2 2 0 0 0 2 2h4v1h-5a2 2 0 0 1-2-2z"/><path id="uhdfb" d="M479 2716v-13h1v13z"/></defs><g><g transform="translate(-470 -2697)"><use fill="#fff" xlink:href="#uhdfa"/></g><g transform="translate(-470 -2697)"><use fill="#fff" xlink:href="#uhdfb"/></g></g></svg>