<svg xmlns="http://www.w3.org/2000/svg" xmlns:xlink="http://www.w3.org/1999/xlink" xml:space="preserve" width="663px" height="118px" shape-rendering="geometricPrecision" text-rendering="geometricPrecision" image-rendering="optimizeQuality" fill-rule="evenodd" clip-rule="evenodd" viewBox="0 0 448.249 79.8098">
 <g id="Слой_x0020_1">
  <metadata id="CorelCorpID_0Corel-Layer"/>
  <g id="_260251088">
   <g>
    <path id="_258571096" fill="#589d00" fill-rule="nonzero" d="M426.044 57.6665l8.74049 0c3.18888,0 8.02608,-0.249842 10.9851,-4.48838 2.22783,-3.19207 2.48006,-7.67806 2.48006,-11.812 0,-3.42515 -0.124522,-8.27193 -3.30782,-11.575 -3.00848,-3.12343 -7.21509,-3.42595 -9.21303,-3.42595l-10.9252 0c-1.17099,0 -2.72592,0.118935 -3.8977,1.00416 -0.766289,0.580305 -1.77125,1.78242 -1.77125,3.83943l0 36.5073 6.90938 0 0 -10.0496zm0 -5.31533l0 -19.194c0,-0.354409 0.105365,-0.733562 0.472545,-1.06243 0.213922,-0.192371 0.64975,-0.414275 0.944292,-0.414275l6.79204 0c3.07075,0 5.1509,1.53737 6.02415,3.54409 0.356804,0.817375 0.826954,2.48086 0.826954,6.73217 0,4.66559 -0.678485,6.5414 -1.2995,7.50006 -0.791034,1.22127 -2.49124,2.89434 -5.90602,2.89434l-7.85447 0z"/>
    <path id="_258568864" fill="#589d00" fill-rule="nonzero" d="M400.353 26.0107c-3.72129,0 -9.22181,0.120531 -12.6382,3.30782 -3.60076,3.3581 -4.01663,9.2721 -4.01663,12.8154 0,3.18968 0.296937,9.10368 4.01663,12.5208 3.41558,3.1378 8.9169,3.37566 12.6382,3.37566 3.60236,0 9.28807,-0.229887 12.6382,-3.37566 2.30925,-2.16876 4.01584,-6.14229 4.01584,-12.7571 0,-3.30702 -0.415073,-9.22102 -4.01584,-12.5791 -3.41637,-3.18729 -8.91769,-3.30782 -12.6382,-3.30782zm-9.50837 16.0641c0,-2.00752 0,-6.02415 1.94925,-8.26794 1.94845,-2.24459 5.31533,-2.48086 7.55913,-2.48086 2.48006,0 5.49254,0.246649 7.50006,2.48086 2.17514,2.4202 2.00832,5.96429 2.00832,8.26794 0,2.71713 -0.00478931,5.7344 -2.06659,8.03247 -2.0618,2.29807 -4.84359,2.5982 -7.44179,2.5982 -2.48086,0 -5.50052,-0.298534 -7.50086,-2.5982 -1.94606,-2.2382 -2.00752,-5.43347 -2.00752,-8.03247z"/>
    <path id="_260255856" fill="#589d00" fill-rule="nonzero" d="M303.911 26.3651l0 5.31533 15.4144 0c1.06323,0 2.42259,0.185985 3.36609,1.35857 0.758307,0.942696 0.886022,2.01869 0.886022,2.95261l0 2.18552 -13.5833 0c-1.64353,0 -3.78355,0.126118 -5.72881,1.83031 -2.35554,2.06419 -2.65807,4.84359 -2.65807,7.61899 0,2.30366 0.185985,6.32109 2.71713,8.50501 1.76965,1.52619 3.95677,1.53497 5.66974,1.53497l14.9418 0c1.4767,0 3.19447,-0.122926 4.31118,-1.24043 1.11671,-1.11671 1.23963,-2.89354 1.23963,-4.01584l0 -16.2405c0,-3.48502 -1.00735,-6.03054 -2.30286,-7.38272 -1.41045,-1.47271 -3.84981,-2.42179 -6.4967,-2.42179l-17.7763 0zm19.6665 17.1274l0 7.20472c0,0.462168 0.0103768,0.908372 -0.472545,1.2995 -0.45259,0.36718 -1.13187,0.354409 -1.53577,0.354409l-9.62571 0c-0.875645,0 -1.78801,-0.467756 -2.24459,-0.94509 -0.832542,-0.870058 -0.94509,-2.53913 -0.94509,-3.48422 0,-2.24459 0.540394,-3.07314 0.767886,-3.36609 0.766289,-0.996176 2.06739,-1.06323 2.53993,-1.06323l11.5159 0z"/>
    <path id="_418869768" fill="#589d00" fill-rule="nonzero" d="M161.058 26.0107c-3.72129,0 -9.21383,0.118935 -12.6382,3.30782 -3.60316,3.36609 -4.01663,9.2721 -4.01663,12.8154 0,3.18968 0.295341,9.0949 4.01663,12.5208 3.42436,3.13939 8.9169,3.37566 12.6382,3.37566 3.60236,0 9.2721,-0.236273 12.6382,-3.37566 2.30286,-2.18552 4.01584,-6.14229 4.01584,-12.7571 0,-3.30702 -0.413477,-9.21303 -4.01584,-12.5791 -3.42515,-3.18888 -8.91769,-3.30782 -12.6382,-3.30782zm-9.50837 16.0641c0,-2.00752 0,-6.02415 1.94845,-8.26794 1.94925,-2.24459 5.31613,-2.48086 7.55992,-2.48086 2.48006,0 5.49254,0.236273 7.49926,2.48086 2.18632,2.421 2.00912,5.96429 2.00912,8.26794 0,2.71713 0,5.72881 -2.06659,8.03247 -2.06818,2.30286 -4.84359,2.5982 -7.44179,2.5982 -2.48086,0 -5.49254,-0.295341 -7.50165,-2.5982 -1.94845,-2.24459 -2.00672,-5.43347 -2.00672,-8.03247z"/>
    <path id="_259480208" fill="#589d00" fill-rule="nonzero" d="M333.431 57.6665l8.15939 0 10.2172 -12.4027c0.745536,-0.904381 1.83031,-2.12645 1.83031,-3.54329 0,-1.35697 -1.10473,-2.90791 -2.18392,-4.25211l-8.91849 -11.1032 -8.04125 0 10.7584 12.8162c0.451791,0.537999 1.2987,1.77204 1.2987,2.30286 0,0.590681 -0.870058,1.92131 -1.2987,2.42179l-11.8216 13.7605z"/>
    <path id="_260250792" fill="#589d00" fill-rule="nonzero" d="M383.345 57.6665l-11.8112 -13.7605c-0.460572,-0.537201 -1.2995,-1.77204 -1.2995,-2.42179 0,-0.295341 0.146074,-0.920346 1.2995,-2.30286l10.6889 -12.8162 -8.03167 0 -8.85863 11.1032c-1.06722,1.33781 -2.18632,2.89514 -2.18632,4.25211 0,1.41684 1.09037,2.64529 1.83191,3.54329l10.2164 12.4027 8.15061 0z"/>
    <polygon id="_260250960" fill="#589d00" fill-rule="nonzero" points="361.729,57.6665 361.729,26.3651 355.056,26.3651 355.056,57.6665 "/>
    <path id="_257697752" fill="#589d00" fill-rule="nonzero" d="M291.982 35.1064c0.0957862,-0.246649 0.353611,-0.708818 0.530815,-0.708818 0.118136,0 0.3584,0.246649 0.355207,0.590681l-0.295341 22.6782 6.90938 0 0 -27.1674c0,-3.07075 -2.53913,-4.48838 -5.3736,-4.48838 -2.599,0 -4.31118,0.839725 -5.31613,3.36688l-7.91353 19.902c-0.113347,0.285762 -0.590681,1.24043 -0.886022,1.24043 -0.295341,0 -0.768684,-0.944292 -0.886022,-1.24043l-7.91353 -19.902c-1.00815,-2.53754 -2.71713,-3.36688 -5.31533,-3.36688 -2.83447,0 -5.3744,1.42801 -5.3744,4.48838l0 27.1674 6.90938 0 -0.294542 -22.6782c-0.00159644,-0.177204 0,-0.531613 0.354409,-0.531613 0.236273,0 0.407091,0.486115 0.472545,0.64975l8.03167 20.3155c0.48372,1.22367 1.53577,2.60858 4.01584,2.60858 2.48086,0 3.53132,-1.37294 4.01584,-2.60858l7.9734 -20.3155z"/>
    <path id="_260250696" fill="#589d00" fill-rule="nonzero" d="M246.043 57.6665l0 -25.986 11.7522 0 0 -5.31533 -44.9437 0 -0.118935 0 -6.25803 0 -0.000798218 -0.000798218c0,-3.31021 0,-6.62202 0,-9.93303l-6.91017 0c0,3.31101 0,6.62282 0,9.93382l-6.37776 0c-3.24795,0 -7.61819,0.650548 -10.2172,4.90266 -2.00832,3.30702 -2.18552,7.85447 -2.18552,11.1024 0,3.8985 0.355207,7.9726 2.599,11.0441 2.95341,4.0749 7.14565,4.25211 10.0408,4.25211l6.14069 0 0 3.07553 0.000798218 0 0 6.97403 6.91017 0 0 -10.0496 6.14149 0c3.01248,0 7.08738,-0.177204 10.04,-4.25211 2.36193,-3.24875 2.5982,-6.85111 2.5982,-11.0441 0,-3.34853 -0.00239465,-7.29412 -1.93887,-10.6897l15.8175 0 0 25.986 6.91017 0zm-39.5685 -5.31533l0 -20.6707 3.54249 0c1.94925,0 4.96093,0.177204 6.61483,2.48086 1.18136,1.65311 1.4767,4.36945 1.4767,8.26794 0,2.65727 -0.0590681,5.1972 -1.24043,7.14645 -1.18136,2.06659 -3.18888,2.7754 -6.96924,2.7754l-3.42436 0zm-6.91017 0l-3.42595 0c-3.77876,0 -5.78708,-0.708818 -6.96844,-2.7754 -1.18136,-1.94925 -1.23963,-4.48918 -1.23963,-7.14645 0,-4.54745 0.471747,-6.85111 1.47511,-8.26794 1.71377,-2.30366 4.72545,-2.48086 6.61483,-2.48086l3.54409 0 0 20.6707z"/>
    <path id="_260251040" fill="#589d00" fill-rule="nonzero" d="M142.728 57.6665l0 -5.31533 -11.2214 0c-2.89115,0 -6.32987,-0.292148 -7.85526,-3.30702 -0.83334,-1.64832 -1.00336,-4.66638 -1.00336,-6.4967 0,-0.944292 0.0574717,-4.2545 0.531613,-5.90602 0.763097,-2.65727 3.01168,-4.96093 7.67726,-4.96093l11.1615 0 0 -5.31533 -13.4053 0c-5.60828,0 -8.2855,2.05302 -9.56824,3.36688 -3.49859,3.5856 -3.54329,8.97596 -3.54329,12.6973 0,4.42931 0.241062,8.32621 2.83447,11.3986 2.83687,3.36209 6.97004,3.83863 9.33117,3.83863l15.0608 0z"/>
   </g>
   <path id="_260250528" fill="#589d00" d="M39.9037 0c22.0396,0 39.9093,17.8665 39.9093,39.9029 0,22.0436 -17.8697,39.9077 -39.9093,39.9077 -22.0436,0 -39.9037,-17.8641 -39.9037,-39.9077 0,-22.0364 17.8601,-39.9029 39.9037,-39.9029zm-3.99668 64.6086l0 -20.705 -20.705 0 0 -8.00373 20.705 0 0 -20.6986 7.99655 0 0 20.6986 20.7058 0 0 8.00373 -20.7058 0 0 20.705 -7.99655 0z"/>
  </g>
 </g>
</svg>